<?xml version='1.0' encoding='utf-8'?><svg xmlns="http://www.w3.org/2000/svg" version="1.1" x="0px" y="0px" viewBox="0 0 226.77 204.09" xml:space="preserve"><g transform="translate(-22.68,-22.68)"><polygon points="204.09,113.39 204.09,68.03 181.42,68.03 181.42,45.35 158.74,45.35 158.74,90.71 136.06,90.71 136.06,113.38 158.74,113.38 158.74,136.06 136.06,136.06 136.06,113.39 113.39,113.39 113.39,136.06 90.71,136.06 90.71,158.74 68.03,158.74 68.03,181.42 45.35,181.42 45.35,158.74 22.68,158.74 22.68,226.77 249.45,226.77 249.45,136.06 226.77,136.06 226.77,113.39 "/><rect x="136.06" y="22.68" width="22.68" height="22.68"/><rect x="113.39" y="45.349998" width="22.68" height="22.68"/><rect x="90.709999" y="68.029999" width="22.68" height="22.68"/><rect x="68.029999" y="90.709999" width="22.68" height="22.68"/><rect x="45.349998" y="113.39" width="22.68" height="45.349998"/></g></svg>
